# xmcd
#
# Track frame offsets:
#	225
#	17412
#	35257
#	57257
#	77172
#	98650
#	118827
#	134267
#	152915
#	168747
#
# Disc length: 2511 seconds
#
# Revision: 3
# Processed by: cddbd v1.4PL0 Copyright (c) Steve Scherf et al.
# Submitted via: audiograbber 1.81.02
#
DISCID=7b09cc0a
DTITLE=Robert Cray Band - Don't Be Afraid Of The Dark
DYEAR=1988
DGENRE=Blues
TTITLE0=Don't Be Afraid Of The Dark
TTITLE1=Don't You Even Care?
TTITLE2=Your Secret's Safe With Me
TTITLE3=I Can't Go Home
TTITLE4=Night Patrol
TTITLE5=Acting This Way
TTITLE6=Gotta Change The Rules
TTITLE7=Across The Line
TTITLE8=At Last
TTITLE9=Laugh Out Loud
EXTD=
EXTT0=
EXTT1=
EXTT2=
EXTT3=
EXTT4=
EXTT5=
EXTT6=
EXTT7=
EXTT8=
EXTT9=
PLAYORDER=
